<?xml version="1.0" ?><!DOCTYPE svg  PUBLIC '-//W3C//DTD SVG 1.1//EN'  'http://www.w3.org/Graphics/SVG/1.1/DTD/svg11.dtd'><svg enable-background="new 0 0 91 91" height="91px" id="Layer_1" version="1.1" viewBox="0 0 91 91" width="91px" xml:space="preserve" xmlns="http://www.w3.org/2000/svg" xmlns:xlink="http://www.w3.org/1999/xlink"><g><g><g><g><path d="M5.524,50.736v16.24c0,1.389,1.125,2.514,2.514,2.514h23.643c3.512,2.365,7.609,3.924,12.023,4.416      c0.287,0.109,0.588,0.182,0.893,0.182c0.172,0,0.344-0.025,0.514-0.061c0.533,0.031,1.068,0.053,1.609,0.053      c1.979,0,3.906-0.221,5.766-0.627v8.543c0,1.387,1.125,2.512,2.514,2.512h10.139c1.049,3.074,3.959,5.295,7.383,5.295      c4.305,0,7.807-3.502,7.807-7.809c0-4.303-3.502-7.805-7.807-7.805c-3.424,0-6.334,2.221-7.383,5.293h-7.627v-7.66      c6.547-2.867,11.74-8.256,14.354-14.932H82.87c1.387,0,2.512-1.125,2.512-2.512V28.373c3.074-1.049,5.293-3.959,5.293-7.383      c0-4.305-3.504-7.809-7.809-7.809c-4.303,0-7.805,3.504-7.805,7.809c0,3.426,2.221,6.336,5.295,7.385v23.49h-7.074      c0.279-1.551,0.432-3.146,0.432-4.777c0-13.439-9.879-24.611-22.758-26.65V8.723c0-1.387-1.125-2.512-2.512-2.512H34.612      c-1.051-3.074-3.961-5.293-7.385-5.293c-4.305,0-7.805,3.502-7.805,7.805c0,4.305,3.5,7.807,7.805,7.807      c3.424,0,6.334-2.221,7.385-5.293h11.318v8.887c-14.518,0.42-26.201,12.35-26.201,26.965c0,6.615,2.396,12.678,6.359,17.377      H10.55V50.736c3.076-1.049,5.297-3.959,5.297-7.385c0-4.303-3.504-7.805-7.809-7.805s-7.805,3.502-7.805,7.805      C0.233,46.777,2.452,49.688,5.524,50.736z M72.521,79.215c1.533,0,2.781,1.248,2.781,2.779c0,1.535-1.248,2.783-2.781,2.783      s-2.781-1.248-2.781-2.783C69.739,80.463,70.987,79.215,72.521,79.215z M82.866,18.207c1.535,0,2.783,1.248,2.783,2.783      c0,1.533-1.248,2.781-2.783,2.781c-1.531,0-2.779-1.248-2.779-2.781C80.087,19.455,81.335,18.207,82.866,18.207z M27.228,11.504      c-1.533,0-2.779-1.248-2.779-2.781s1.246-2.779,2.779-2.779s2.781,1.246,2.781,2.779S28.761,11.504,27.228,11.504z M24.903,49.6      h10.219c0.121,2.619,0.432,5.186,0.916,7.658c-2.613,0.521-5.119,1.252-7.482,2.164C26.604,56.559,25.317,53.211,24.903,49.6z       M46.655,25.131c1.484,2.256,2.715,4.883,3.656,7.764c-1.289,0.1-2.594,0.166-3.918,0.166c-1.393,0-2.768-0.068-4.125-0.18      c0.938-2.865,2.162-5.48,3.639-7.732C46.155,25.141,46.405,25.131,46.655,25.131z M52.417,49.6      c-0.119,2.371-0.404,4.688-0.848,6.906c-1.699-0.16-3.426-0.25-5.176-0.25c-1.82,0-3.619,0.092-5.389,0.268      c-0.445-2.227-0.732-4.547-0.852-6.924H52.417z M40.153,44.574c0.119-2.311,0.395-4.578,0.824-6.758      c1.779,0.178,3.588,0.27,5.416,0.27c1.76,0,3.496-0.09,5.203-0.252c0.428,2.172,0.701,4.434,0.82,6.74H40.153z M46.394,61.281      c1.311,0,2.6,0.064,3.877,0.164c-0.932,2.814-2.141,5.387-3.6,7.607c-0.26,0-0.52-0.01-0.779-0.02      c-1.451-2.213-2.654-4.773-3.584-7.574C43.653,61.348,45.015,61.281,46.394,61.281z M55.319,62.111      c2.018,0.381,3.967,0.889,5.818,1.529c-2.348,2.047-5.131,3.604-8.195,4.51C53.868,66.266,54.663,64.242,55.319,62.111z       M56.538,57.229c0.48-2.463,0.789-5.02,0.908-7.629H68.54c-0.422,3.693-1.764,7.109-3.789,10.016      C62.175,58.58,59.415,57.791,56.538,57.229z M57.446,44.574c-0.119-2.545-0.414-5.049-0.879-7.467      c2.9-0.568,5.68-1.371,8.271-2.42c1.977,2.879,3.285,6.248,3.701,9.887H57.446z M55.364,32.223      c-0.664-2.189-1.48-4.264-2.426-6.193c3.121,0.924,5.953,2.52,8.33,4.623C59.392,31.311,57.417,31.834,55.364,32.223z       M37.224,32.193c-1.811-0.352-3.559-0.816-5.236-1.377c2.152-1.951,4.695-3.477,7.492-4.457      C38.604,28.186,37.851,30.141,37.224,32.193z M36.013,37.078c-0.469,2.428-0.77,4.941-0.889,7.496H24.903      c0.406-3.553,1.662-6.85,3.563-9.684C30.847,35.816,33.376,36.551,36.013,37.078z M37.265,62.141      c0.615,1.994,1.35,3.898,2.201,5.678c-2.732-0.961-5.221-2.443-7.342-4.334C33.772,62.939,35.487,62.486,37.265,62.141z       M8.038,40.572c1.535,0,2.783,1.248,2.783,2.779c0,1.535-1.248,2.783-2.783,2.783c-1.533,0-2.779-1.248-2.779-2.783      C5.259,41.82,6.505,40.572,8.038,40.572z"/></g></g></g></g></svg>