{
    "asset" : {
        "generator" : "Khronos glTF Blender I/O v1.2.75",
        "version" : "2.0"
    },
    "scene" : 0,
    "scenes" : [
        {
            "name" : "Scene",
            "nodes" : [
                0,
                1,
                2,
                3,
                4,
                5,
                6
            ]
        }
    ],
    "nodes" : [
        {
            "mesh" : 0,
            "name" : "Text",
            "rotation" : [
                0.09506217390298843,
                0.7868303060531616,
                -0.21036037802696228,
                0.5723720788955688
            ],
            "scale" : [
                0.07000000029802322,
                0.07000000029802322,
                0.07000000029802322
            ],
            "translation" : [
                0.5237709879875183,
                0.8550477027893066,
                -0.1788332462310791
            ]
        },
        {
            "mesh" : 1,
            "name" : "Text.001",
            "rotation" : [
                -0.07695513218641281,
                0.0301814004778862,
                -0.27487441897392273,
                0.9579201936721802
            ],
            "scale" : [
                0.37999439239501953,
                0.37999439239501953,
                0.37999439239501953
            ],
            "translation" : [
                0.5009989738464355,
                0.8922246694564819,
                -0.016591986641287804
            ]
        },
        {
            "mesh" : 2,
            "name" : "Text.002",
            "rotation" : [
                0.5947780013084412,
                -0.298522412776947,
                0.08003763854503632,
                0.7421033978462219
            ],
            "scale" : [
                0.37999439239501953,
                0.37999439239501953,
                0.37999439239501953
            ],
            "translation" : [
                -0.600693941116333,
                0.21500515937805176,
                0.7718619704246521
            ]
        },
        {
            "mesh" : 3,
            "name" : "Text.003",
            "rotation" : [
                0.5984451770782471,
                -0.006216895766556263,
                0.2926701605319977,
                0.74576735496521
            ],
            "scale" : [
                0.07592342048883438,
                0.07592343538999557,
                0.07592343538999557
            ],
            "translation" : [
                -0.5860368609428406,
                0.17953209578990936,
                0.791164755821228
            ]
        },
        {
            "mesh" : 4,
            "name" : "Text.004",
            "rotation" : [
                0.6137519478797913,
                -0.18692544102668762,
                -0.16331633925437927,
                0.7494632601737976
            ],
            "scale" : [
                0.37999439239501953,
                0.37999439239501953,
                0.37999439239501953
            ],
            "translation" : [
                -0.04077134281396866,
                0.2605541944503784,
                0.9590128660202026
            ]
        },
        {
            "mesh" : 5,
            "name" : "Text.005",
            "rotation" : [
                0.6359545588493347,
                0.2072390466928482,
                0.1455741822719574,
                0.728986918926239
            ],
            "scale" : [
                0.07592342048883438,
                0.07592343538999557,
                0.07592343538999557
            ],
            "translation" : [
                -0.003294870723038912,
                0.21247723698616028,
                0.9663867950439453
            ]
        },
        {
            "mesh" : 6,
            "name" : "low_poly_earth"
        }
    ],
    "materials" : [
        {
            "doubleSided" : true,
            "emissiveFactor" : [
                0,
                0,
                0
            ],
            "name" : "Material",
            "pbrMetallicRoughness" : {
                "baseColorFactor" : [
                    0,
                    0,
                    0,
                    1
                ],
                "metallicFactor" : 0,
                "roughnessFactor" : 0.5
            }
        },
        {
            "doubleSided" : true,
            "emissiveFactor" : [
                0,
                0,
                0
            ],
            "name" : "Material.001",
            "pbrMetallicRoughness" : {
                "baseColorFactor" : [
                    0.8000000715255737,
                    0.0007699585403315723,
                    0,
                    1
                ],
                "metallicFactor" : 0,
                "roughnessFactor" : 0.5
            }
        },
        {
            "doubleSided" : true,
            "emissiveFactor" : [
                0,
                0,
                0
            ],
            "name" : "Material.002",
            "pbrMetallicRoughness" : {
                "baseColorFactor" : [
                    0.8000000715255737,
                    0.0007699585403315723,
                    0,
                    1
                ],
                "metallicFactor" : 0,
                "roughnessFactor" : 0.5
            }
        },
        {
            "doubleSided" : true,
            "emissiveFactor" : [
                0,
                0,
                0
            ],
            "name" : "Material.003",
            "pbrMetallicRoughness" : {
                "baseColorFactor" : [
                    0,
                    0,
                    0,
                    1
                ],
                "metallicFactor" : 0,
                "roughnessFactor" : 0.5
            }
        },
        {
            "doubleSided" : true,
            "emissiveFactor" : [
                0,
                0,
                0
            ],
            "name" : "Material.004",
            "pbrMetallicRoughness" : {
                "baseColorFactor" : [
                    0.8000000715255737,
                    0.0007699585403315723,
                    0,
                    1
                ],
                "metallicFactor" : 0,
                "roughnessFactor" : 0.5
            }
        },
        {
            "doubleSided" : true,
            "emissiveFactor" : [
                0,
                0,
                0
            ],
            "name" : "Material.005",
            "pbrMetallicRoughness" : {
                "baseColorFactor" : [
                    0,
                    0,
                    0,
                    1
                ],
                "metallicFactor" : 0,
                "roughnessFactor" : 0.5
            }
        },
        {
            "doubleSided" : true,
            "emissiveFactor" : [
                0,
                0,
                0
            ],
            "name" : "water",
            "pbrMetallicRoughness" : {
                "baseColorFactor" : [
                    0.0321921668946743,
                    0.3591911196708679,
                    0.8000000715255737,
                    1
                ],
                "metallicFactor" : 0,
                "roughnessFactor" : 0.5
            }
        },
        {
            "doubleSided" : true,
            "emissiveFactor" : [
                0,
                0,
                0
            ],
            "name" : "earth",
            "pbrMetallicRoughness" : {
                "baseColorFactor" : [
                    0.08938153833150864,
                    0.6266627311706543,
                    0.0777880921959877,
                    1
                ],
                "metallicFactor" : 0,
                "roughnessFactor" : 0.5
            }
        }
    ],
    "meshes" : [
        {
            "name" : "Curve",
            "primitives" : [
                {
                    "attributes" : {
                        "POSITION" : 0,
                        "NORMAL" : 1,
                        "TEXCOORD_0" : 2
                    },
                    "indices" : 3,
                    "material" : 0
                }
            ]
        },
        {
            "name" : "Text",
            "primitives" : [
                {
                    "attributes" : {
                        "POSITION" : 4,
                        "NORMAL" : 5,
                        "TEXCOORD_0" : 6
                    },
                    "indices" : 7,
                    "material" : 1
                }
            ]
        },
        {
            "name" : "Text.001",
            "primitives" : [
                {
                    "attributes" : {
                        "POSITION" : 8,
                        "NORMAL" : 9,
                        "TEXCOORD_0" : 10
                    },
                    "indices" : 7,
                    "material" : 2
                }
            ]
        },
        {
            "name" : "Text.003",
            "primitives" : [
                {
                    "attributes" : {
                        "POSITION" : 11,
                        "NORMAL" : 12,
                        "TEXCOORD_0" : 13
                    },
                    "indices" : 14,
                    "material" : 3
                }
            ]
        },
        {
            "name" : "Text.002",
            "primitives" : [
                {
                    "attributes" : {
                        "POSITION" : 15,
                        "NORMAL" : 16,
                        "TEXCOORD_0" : 17
                    },
                    "indices" : 7,
                    "material" : 4
                }
            ]
        },
        {
            "name" : "Text.004",
            "primitives" : [
                {
                    "attributes" : {
                        "POSITION" : 18,
                        "NORMAL" : 19,
                        "TEXCOORD_0" : 20
                    },
                    "indices" : 21,
                    "material" : 5
                }
            ]
        },
        {
            "name" : "Sphere.004",
            "primitives" : [
                {
                    "attributes" : {
                        "POSITION" : 22,
                        "NORMAL" : 23,
                        "TEXCOORD_0" : 24
                    },
                    "indices" : 25,
                    "material" : 6
                },
                {
                    "attributes" : {
                        "POSITION" : 26,
                        "NORMAL" : 27,
                        "TEXCOORD_0" : 28
                    },
                    "indices" : 29,
                    "material" : 7
                }
            ]
        }
    ],
    "accessors" : [
        {
            "bufferView" : 0,
            "componentType" : 5126,
            "count" : 1551,
            "max" : [
                2.934539794921875,
                0.036000002175569534,
                0.009180000051856041
            ],
            "min" : [
                0.07446000725030899,
                -0.036000002175569534,
                -0.6956400275230408
            ],
            "type" : "VEC3"
        },
        {
            "bufferView" : 1,
            "componentType" : 5126,
            "count" : 1551,
            "type" : "VEC3"
        },
        {
            "bufferView" : 2,
            "componentType" : 5126,
            "count" : 1551,
            "type" : "VEC2"
        },
        {
            "bufferView" : 3,
            "componentType" : 5123,
            "count" : 3936,
            "type" : "SCALAR"
        },
        {
            "bufferView" : 4,
            "componentType" : 5126,
            "count" : 231,
            "max" : [
                0.19380000233650208,
                0.005000000353902578,
                -0.2907000184059143
            ],
            "min" : [
                0.0714000016450882,
                -0.005000000353902578,
                -0.4131000339984894
            ],
            "type" : "VEC3"
        },
        {
            "bufferView" : 5,
            "componentType" : 5126,
            "count" : 231,
            "type" : "VEC3"
        },
        {
            "bufferView" : 6,
            "componentType" : 5126,
            "count" : 231,
            "type" : "VEC2"
        },
        {
            "bufferView" : 7,
            "componentType" : 5123,
            "count" : 564,
            "type" : "SCALAR"
        },
        {
            "bufferView" : 8,
            "componentType" : 5126,
            "count" : 231,
            "max" : [
                0.06120002269744873,
                0.005000000353902578,
                0.061199963092803955
            ],
            "min" : [
                -0.06119997799396515,
                -0.005000000353902578,
                -0.06120005249977112
            ],
            "type" : "VEC3"
        },
        {
            "bufferView" : 9,
            "componentType" : 5126,
            "count" : 231,
            "type" : "VEC3"
        },
        {
            "bufferView" : 10,
            "componentType" : 5126,
            "count" : 231,
            "type" : "VEC2"
        },
        {
            "bufferView" : 11,
            "componentType" : 5126,
            "count" : 3031,
            "max" : [
                2.210850238800049,
                0.03999999910593033,
                0.3524100184440613
            ],
            "min" : [
                -2.2108500003814697,
                -0.03999999910593033,
                -0.3524100184440613
            ],
            "type" : "VEC3"
        },
        {
            "bufferView" : 12,
            "componentType" : 5126,
            "count" : 3031,
            "type" : "VEC3"
        },
        {
            "bufferView" : 13,
            "componentType" : 5126,
            "count" : 3031,
            "type" : "VEC2"
        },
        {
            "bufferView" : 14,
            "componentType" : 5123,
            "count" : 7716,
            "type" : "SCALAR"
        },
        {
            "bufferView" : 15,
            "componentType" : 5126,
            "count" : 231,
            "max" : [
                0.06120002269744873,
                0.005000000353902578,
                0.061199963092803955
            ],
            "min" : [
                -0.06119997799396515,
                -0.005000000353902578,
                -0.06120005249977112
            ],
            "type" : "VEC3"
        },
        {
            "bufferView" : 16,
            "componentType" : 5126,
            "count" : 231,
            "type" : "VEC3"
        },
        {
            "bufferView" : 17,
            "componentType" : 5126,
            "count" : 231,
            "type" : "VEC2"
        },
        {
            "bufferView" : 18,
            "componentType" : 5126,
            "count" : 2163,
            "max" : [
                1.31121027469635,
                0.03999999910593033,
                0.3524100184440613
            ],
            "min" : [
                -2.193510055541992,
                -0.03999999910593033,
                -0.3524100184440613
            ],
            "type" : "VEC3"
        },
        {
            "bufferView" : 19,
            "componentType" : 5126,
            "count" : 2163,
            "type" : "VEC3"
        },
        {
            "bufferView" : 20,
            "componentType" : 5126,
            "count" : 2163,
            "type" : "VEC2"
        },
        {
            "bufferView" : 21,
            "componentType" : 5123,
            "count" : 5544,
            "type" : "SCALAR"
        },
        {
            "bufferView" : 22,
            "componentType" : 5126,
            "count" : 410,
            "max" : [
                0.964901328086853,
                0.9753069281578064,
                0.9621639251708984
            ],
            "min" : [
                -0.9646192789077759,
                -0.9757384657859802,
                -0.9675606489181519
            ],
            "type" : "VEC3"
        },
        {
            "bufferView" : 23,
            "componentType" : 5126,
            "count" : 410,
            "type" : "VEC3"
        },
        {
            "bufferView" : 24,
            "componentType" : 5126,
            "count" : 410,
            "type" : "VEC2"
        },
        {
            "bufferView" : 25,
            "componentType" : 5123,
            "count" : 2292,
            "type" : "SCALAR"
        },
        {
            "bufferView" : 26,
            "componentType" : 5126,
            "count" : 5014,
            "max" : [
                0.9841111898422241,
                1.0133217573165894,
                0.9926793575286865
            ],
            "min" : [
                -0.9578160047531128,
                -0.9993601441383362,
                -1.001206398010254
            ],
            "type" : "VEC3"
        },
        {
            "bufferView" : 27,
            "componentType" : 5126,
            "count" : 5014,
            "type" : "VEC3"
        },
        {
            "bufferView" : 28,
            "componentType" : 5126,
            "count" : 5014,
            "type" : "VEC2"
        },
        {
            "bufferView" : 29,
            "componentType" : 5123,
            "count" : 13416,
            "type" : "SCALAR"
        }
    ],
    "bufferViews" : [
        {
            "buffer" : 0,
            "byteLength" : 18612,
            "byteOffset" : 0
        },
        {
            "buffer" : 0,
            "byteLength" : 18612,
            "byteOffset" : 18612
        },
        {
            "buffer" : 0,
            "byteLength" : 12408,
            "byteOffset" : 37224
        },
        {
            "buffer" : 0,
            "byteLength" : 7872,
            "byteOffset" : 49632
        },
        {
            "buffer" : 0,
            "byteLength" : 2772,
            "byteOffset" : 57504
        },
        {
            "buffer" : 0,
            "byteLength" : 2772,
            "byteOffset" : 60276
        },
        {
            "buffer" : 0,
            "byteLength" : 1848,
            "byteOffset" : 63048
        },
        {
            "buffer" : 0,
            "byteLength" : 1128,
            "byteOffset" : 64896
        },
        {
            "buffer" : 0,
            "byteLength" : 2772,
            "byteOffset" : 66024
        },
        {
            "buffer" : 0,
            "byteLength" : 2772,
            "byteOffset" : 68796
        },
        {
            "buffer" : 0,
            "byteLength" : 1848,
            "byteOffset" : 71568
        },
        {
            "buffer" : 0,
            "byteLength" : 36372,
            "byteOffset" : 73416
        },
        {
            "buffer" : 0,
            "byteLength" : 36372,
            "byteOffset" : 109788
        },
        {
            "buffer" : 0,
            "byteLength" : 24248,
            "byteOffset" : 146160
        },
        {
            "buffer" : 0,
            "byteLength" : 15432,
            "byteOffset" : 170408
        },
        {
            "buffer" : 0,
            "byteLength" : 2772,
            "byteOffset" : 185840
        },
        {
            "buffer" : 0,
            "byteLength" : 2772,
            "byteOffset" : 188612
        },
        {
            "buffer" : 0,
            "byteLength" : 1848,
            "byteOffset" : 191384
        },
        {
            "buffer" : 0,
            "byteLength" : 25956,
            "byteOffset" : 193232
        },
        {
            "buffer" : 0,
            "byteLength" : 25956,
            "byteOffset" : 219188
        },
        {
            "buffer" : 0,
            "byteLength" : 17304,
            "byteOffset" : 245144
        },
        {
            "buffer" : 0,
            "byteLength" : 11088,
            "byteOffset" : 262448
        },
        {
            "buffer" : 0,
            "byteLength" : 4920,
            "byteOffset" : 273536
        },
        {
            "buffer" : 0,
            "byteLength" : 4920,
            "byteOffset" : 278456
        },
        {
            "buffer" : 0,
            "byteLength" : 3280,
            "byteOffset" : 283376
        },
        {
            "buffer" : 0,
            "byteLength" : 4584,
            "byteOffset" : 286656
        },
        {
            "buffer" : 0,
            "byteLength" : 60168,
            "byteOffset" : 291240
        },
        {
            "buffer" : 0,
            "byteLength" : 60168,
            "byteOffset" : 351408
        },
        {
            "buffer" : 0,
            "byteLength" : 40112,
            "byteOffset" : 411576
        },
        {
            "buffer" : 0,
            "byteLength" : 26832,
            "byteOffset" : 451688
        }
    ],
    "buffers" : [
        {
            "byteLength" : 478520,
            "uri" : "data:application/octet-stream;base64,"
        }
    ]
}
