{
    "asset" : {
        "generator" : "Khronos glTF Blender I/O v1.2.75",
        "version" : "2.0"
    },
    "scene" : 0,
    "scenes" : [
        {
            "name" : "Scene",
            "nodes" : [
                0
            ]
        }
    ],
    "nodes" : [
        {
            "mesh" : 0,
            "name" : "BezierCurve",
            "rotation" : [
                0.691875159740448,
                0.06253693252801895,
                -0.2647666931152344,
                0.6688023209571838
            ],
            "scale" : [
                0.9676722884178162,
                0.9676722288131714,
                0.9676722288131714
            ],
            "translation" : [
                0.0009514070115983486,
                0.0013286992907524109,
                -0.0011800676584243774
            ]
        }
    ],
    "materials" : [
        {
            "doubleSided" : true,
            "emissiveFactor" : [
                0,
                0,
                0
            ],
            "name" : "Flightcureve",
            "pbrMetallicRoughness" : {
                "baseColorFactor" : [
                    0.8000000715255737,
                    0.23999418318271637,
                    0,
                    1
                ],
                "metallicFactor" : 0,
                "roughnessFactor" : 0.5
            }
        }
    ],
    "meshes" : [
        {
            "name" : "BezierCurve",
            "primitives" : [
                {
                    "attributes" : {
                        "POSITION" : 0,
                        "NORMAL" : 1,
                        "TEXCOORD_0" : 2
                    },
                    "indices" : 3,
                    "material" : 0
                }
            ]
        }
    ],
    "accessors" : [
        {
            "bufferView" : 0,
            "componentType" : 5126,
            "count" : 1815,
            "max" : [
                0.7730255722999573,
                0.2690519094467163,
                0.21267570555210114
            ],
            "min" : [
                -0.47447749972343445,
                -0.5697779655456543,
                -0.2396988868713379
            ],
            "type" : "VEC3"
        },
        {
            "bufferView" : 1,
            "componentType" : 5126,
            "count" : 1815,
            "type" : "VEC3"
        },
        {
            "bufferView" : 2,
            "componentType" : 5126,
            "count" : 1815,
            "type" : "VEC2"
        },
        {
            "bufferView" : 3,
            "componentType" : 5123,
            "count" : 10272,
            "type" : "SCALAR"
        }
    ],
    "bufferViews" : [
        {
            "buffer" : 0,
            "byteLength" : 21780,
            "byteOffset" : 0
        },
        {
            "buffer" : 0,
            "byteLength" : 21780,
            "byteOffset" : 21780
        },
        {
            "buffer" : 0,
            "byteLength" : 14520,
            "byteOffset" : 43560
        },
        {
            "buffer" : 0,
            "byteLength" : 20544,
            "byteOffset" : 58080
        }
    ],
    "buffers" : [
        {
            "byteLength" : 78624,
            "uri" : "data:application/octet-stream;base64,"
        }
    ]
}
